# xmcd
# 
# Track frame offsets:
#     150
#     51593
#     98858
#     136736
#     154241
# 
# Disc length: 3333
# 
# Revision: 1
# Processed by: cddbd v1.5.2PL0 Copyright (c) Steve Scherf et al.
# Submitted via: fre:ac v1.0.27
# 
DISCID=3f0d0305
DTITLE=Antonio Sanchez - The Meridian Suite
DYEAR=2015
DGENRE=Jazz
TTITLE0=GRIDS AND PATTERNS
TTITLE1=IMAGINARY LINES
TTITLE2=CHANNELS OF ENERGY
TTITLE3=MAGNETIC CURRENTS
TTITLE4=PATHWAYS OF THE MIND
EXTD=YEAR: 2015
EXTT0=
EXTT1=
EXTT2=
EXTT3=
EXTT4=
PLAYORDER=
